<?xml version="1.0" standalone="no"?>
<!DOCTYPE svg PUBLIC "-//W3C//DTD SVG 20010904//EN"
 "http://www.w3.org/TR/2001/REC-SVG-20010904/DTD/svg10.dtd">
<svg version="1.0" xmlns="http://www.w3.org/2000/svg"
 width="700.000000pt" height="227.000000pt" viewBox="0 0 700.000000 227.000000"
 preserveAspectRatio="xMidYMid meet">

<g transform="translate(0.000000,227.000000) scale(0.100000,-0.100000)"
fill="#000000" stroke="none">
<path d="M190 1626 l0 -614 198 -129 c108 -72 304 -200 435 -286 l237 -157 -2
632 -3 631 -425 268 c-234 147 -428 268 -432 268 -5 1 -8 -275 -8 -613z"/>
<path d="M1595 1587 c-3 -6 -4 -161 -3 -342 l3 -330 145 -3 c159 -3 202 4 250
44 43 37 62 78 62 138 1 79 -32 130 -101 159 l-33 14 36 21 c54 32 76 75 76
151 0 60 -2 65 -38 101 -21 21 -55 43 -77 49 -58 16 -314 15 -320 -2z m304
-50 c99 -35 105 -178 10 -229 -27 -14 -56 -18 -146 -18 l-113 0 0 130 0 130
108 -1 c59 0 122 -5 141 -12z m28 -320 c47 -25 67 -61 67 -118 0 -58 -23 -95
-75 -121 -27 -14 -59 -18 -151 -18 l-118 0 0 141 0 141 123 -4 c91 -3 130 -8
154 -21z"/>
<path d="M3057 1594 c-4 -4 -7 -160 -7 -346 l0 -338 25 0 c25 0 25 1 25 83 l0
83 48 47 c38 37 51 45 58 35 6 -7 41 -66 79 -130 62 -106 72 -118 97 -118 16
0 28 2 28 4 0 2 -39 70 -86 150 l-86 146 30 37 c17 21 51 58 76 83 25 24 46
48 46 52 0 4 -13 8 -29 8 -24 0 -46 -20 -137 -120 -60 -66 -112 -120 -116
-120 -4 0 -9 100 -10 222 -3 192 -5 223 -18 226 -9 1 -19 0 -23 -4z"/>
<path d="M3882 1583 c-6 -10 -63 -160 -127 -333 -65 -173 -120 -321 -122 -327
-4 -9 5 -13 24 -13 27 0 30 5 57 83 16 45 35 94 43 110 l14 27 139 0 139 0 14
-27 c8 -16 27 -65 42 -110 27 -79 30 -83 58 -83 23 0 28 4 24 18 -18 61 -231
631 -243 650 -17 26 -50 29 -62 5z m84 -199 c25 -71 52 -146 60 -166 l13 -38
-128 0 -128 0 53 148 c62 169 73 196 79 190 3 -2 25 -62 51 -134z"/>
<path d="M6117 1594 c-13 -13 -7 -585 6 -624 15 -44 71 -75 118 -65 40 9 35
37 -8 46 -65 13 -62 1 -65 338 -3 299 -3 306 -23 309 -12 2 -24 0 -28 -4z"/>
<path d="M6331 1536 c-20 -24 -9 -51 19 -51 21 0 25 5 25 30 0 34 -24 45 -44
21z"/>
<path d="M5137 1533 c-4 -3 -7 -37 -7 -75 l0 -68 -30 0 c-23 0 -30 -5 -30 -19
0 -14 8 -21 28 -23 l27 -3 6 -200 c3 -110 6 -201 7 -203 13 -17 76 -42 107
-42 63 0 85 9 85 34 0 21 -4 22 -52 19 -92 -8 -93 -6 -93 209 l0 183 58 3 c48
3 57 6 57 22 0 16 -9 19 -57 22 l-58 3 -3 73 c-2 61 -5 72 -21 72 -10 0 -21
-3 -24 -7z"/>
<path d="M2234 1381 c-122 -56 -166 -274 -81 -402 53 -80 185 -103 260 -46 44
33 47 33 47 2 0 -20 5 -25 25 -25 l25 0 0 234 c0 205 -2 235 -16 240 -21 8
-34 -1 -34 -25 0 -23 -13 -25 -31 -2 -37 44 -127 55 -195 24z m181 -62 l35
-31 0 -127 c0 -109 -3 -131 -20 -159 -37 -61 -133 -79 -196 -37 -89 58 -91
286 -3 360 25 20 41 25 89 25 52 0 64 -4 95 -31z"/>
<path d="M2746 1390 c-16 -5 -44 -24 -63 -42 l-33 -32 0 26 c0 34 -24 55 -45
38 -13 -10 -15 -50 -15 -241 l0 -229 30 0 30 0 0 163 c0 183 8 214 69 254 64
43 159 23 180 -38 6 -19 11 -104 11 -205 l0 -174 25 0 25 0 0 198 c0 180 -2
200 -20 230 -33 54 -114 75 -194 52z"/>
<path d="M4760 1382 c-42 -21 -80 -75 -80 -114 0 -72 43 -106 169 -134 93 -21
121 -43 121 -95 0 -94 -130 -130 -241 -66 -35 20 -40 21 -54 6 -15 -15 -15
-18 12 -36 43 -30 90 -43 158 -43 111 0 185 61 185 153 0 63 -44 98 -155 126
-104 26 -130 40 -139 76 -22 86 104 134 209 79 26 -13 30 -13 44 1 15 15 14
18 -4 31 -49 36 -168 45 -225 16z"/>
<path d="M5760 1384 c-82 -36 -121 -103 -128 -220 -7 -130 37 -222 121 -253
63 -24 148 -8 200 37 16 14 17 13 17 -11 0 -23 4 -27 30 -27 l30 0 0 229 c0
182 -3 231 -14 240 -19 16 -46 3 -46 -22 l0 -20 -22 21 c-47 43 -124 54 -188
26z m150 -49 c52 -27 60 -49 60 -165 0 -165 -22 -210 -110 -225 -91 -15 -154
39 -172 147 -16 92 2 167 51 218 35 37 42 40 90 40 29 0 65 -7 81 -15z"/>
<path d="M6595 1386 c-166 -74 -181 -394 -22 -467 75 -33 156 -23 210 29 l27
26 0 -32 c0 -28 4 -32 25 -32 l25 0 -2 238 c-3 229 -4 237 -23 237 -14 0 -21
-8 -25 -29 l-5 -28 -20 22 c-42 47 -128 63 -190 36z m178 -76 l40 -41 -6 -114
c-3 -63 -11 -126 -19 -141 -32 -65 -110 -89 -180 -55 -68 32 -83 67 -83 186 0
87 3 105 23 138 31 49 65 66 131 67 49 0 56 -3 94 -40z"/>
<path d="M4237 1383 c-4 -3 -7 -88 -7 -187 0 -204 7 -232 69 -273 63 -42 180
-21 229 42 l22 28 0 -42 c0 -37 2 -41 25 -41 l25 0 -2 238 c-3 229 -4 237 -23
237 -19 0 -20 -8 -25 -165 -4 -131 -9 -172 -22 -197 -40 -71 -148 -98 -205
-49 l-28 24 -3 183 c-2 110 -8 189 -14 196 -11 14 -31 17 -41 6z"/>
<path d="M5397 1384 c-4 -4 -7 -112 -7 -241 l0 -233 25 0 25 0 0 138 c0 100 4
151 16 185 17 50 60 94 100 102 13 3 35 7 49 10 17 4 25 12 25 25 0 16 -7 20
-35 20 -46 0 -84 -20 -123 -64 l-31 -35 -3 47 c-2 33 -8 48 -18 50 -9 1 -19 0
-23 -4z"/>
<path d="M6332 1378 c-9 -9 -12 -73 -12 -240 l0 -228 30 0 30 0 -2 237 c-3
203 -5 238 -18 241 -9 1 -21 -3 -28 -10z"/>
<path d="M1600 544 c0 -80 3 -105 13 -102 6 3 13 23 15 46 3 38 6 42 31 42 22
0 31 -8 49 -45 12 -25 27 -45 33 -45 7 0 8 7 4 18 -26 64 -27 73 -11 91 9 10
16 29 16 43 0 40 -29 58 -93 58 l-57 0 0 -106z m124 64 c18 -29 -4 -53 -53
-56 l-41 -3 0 41 0 41 41 -3 c27 -2 46 -9 53 -20z"/>
<path d="M1810 545 l0 -105 70 0 c40 0 70 4 70 10 0 6 -27 10 -60 10 l-60 0 0
40 0 40 50 0 c28 0 50 5 50 10 0 6 -22 10 -50 10 l-50 0 0 35 0 35 60 0 c33 0
60 4 60 10 0 6 -30 10 -70 10 l-70 0 0 -105z"/>
<path d="M2007 632 c-37 -41 -14 -80 57 -97 32 -8 42 -15 44 -34 7 -46 -66
-59 -94 -16 -18 27 -34 33 -34 12 0 -25 45 -57 81 -57 95 0 110 102 18 116
-52 9 -73 28 -59 55 14 26 66 26 82 -1 16 -25 40 -27 31 -2 -10 28 -34 42 -73
42 -23 0 -43 -7 -53 -18z"/>
<path d="M2190 545 c0 -87 3 -105 15 -105 11 0 15 11 15 40 0 38 2 40 31 40
54 0 89 26 89 68 0 40 -34 62 -95 62 l-55 0 0 -105z m108 76 c8 -5 12 -21 10
-37 -3 -26 -7 -29 -45 -32 l-43 -3 0 40 c0 40 1 41 33 41 17 0 38 -4 45 -9z"/>
<path d="M2401 631 c-41 -41 -35 -157 9 -181 51 -27 112 0 126 55 11 43 -3
108 -26 127 -30 24 -85 23 -109 -1z m93 -17 c22 -21 21 -111 -1 -136 -20 -22
-51 -23 -75 -1 -24 22 -25 109 -1 135 20 22 56 23 77 2z"/>
<path d="M2590 546 c0 -64 4 -106 10 -106 6 0 10 33 10 80 0 44 3 80 8 80 4 0
29 -36 56 -80 66 -109 76 -106 76 25 0 63 -4 105 -10 105 -6 0 -10 -34 -10
-82 0 -95 -2 -94 -66 10 -22 37 -48 68 -57 70 -15 3 -17 -9 -17 -102z"/>
<path d="M2827 632 c-37 -41 -14 -80 57 -97 32 -8 42 -15 44 -34 7 -48 -64
-58 -96 -14 -11 16 -24 25 -28 20 -4 -4 1 -20 13 -35 24 -33 82 -42 119 -17
43 28 26 89 -28 100 -66 13 -69 15 -66 43 2 22 9 28 35 30 24 2 35 -2 45 -17
13 -22 38 -29 38 -11 0 6 -9 19 -20 30 -26 26 -90 27 -113 2z"/>
<path d="M3010 545 c0 -87 3 -105 15 -105 12 0 15 18 15 105 0 87 -3 105 -15
105 -12 0 -15 -18 -15 -105z"/>
<path d="M3100 545 l0 -105 53 0 c64 0 97 20 97 59 0 15 -5 32 -11 38 -8 8 -8
17 0 31 15 29 14 39 -9 62 -15 15 -33 20 -75 20 l-55 0 0 -105z m115 50 c0
-29 -2 -30 -47 -33 l-48 -3 0 36 0 36 48 -3 c45 -3 47 -4 47 -33z m5 -74 c20
-39 -14 -67 -71 -59 -20 2 -25 10 -27 41 l-3 37 45 0 c34 0 48 -5 56 -19z"/>
<path d="M3310 545 l0 -105 60 0 c33 0 60 4 60 10 0 6 -22 10 -50 10 l-50 0 0
95 c0 57 -4 95 -10 95 -6 0 -10 -42 -10 -105z"/>
<path d="M3470 545 l0 -105 70 0 c40 0 70 4 70 10 0 6 -25 10 -55 10 l-55 0 0
40 0 40 50 0 c28 0 50 5 50 10 0 6 -22 10 -50 10 l-50 0 0 35 0 35 55 0 c30 0
55 5 55 10 0 6 -30 10 -70 10 l-70 0 0 -105z"/>
<path d="M3750 545 l0 -105 60 0 c47 0 64 4 80 20 24 24 25 38 4 69 -12 17
-13 26 -5 34 16 16 14 53 -5 71 -10 11 -34 16 -75 16 l-59 0 0 -105z m121 69
c21 -25 -1 -49 -50 -52 -41 -3 -41 -3 -41 32 0 35 1 36 39 36 23 0 44 -6 52
-16z m3 -96 c18 -29 -4 -53 -53 -56 l-41 -3 0 41 0 41 41 -3 c27 -2 46 -9 53
-20z"/>
<path d="M3999 623 c-23 -61 -59 -167 -59 -175 0 -19 20 -6 26 17 6 22 11 25
55 25 44 0 51 -3 59 -25 12 -32 34 -34 24 -2 -3 12 -20 59 -36 105 -32 87 -51
102 -69 55z m55 -105 c-3 -4 -19 -8 -36 -8 -28 0 -30 2 -25 28 3 15 11 41 17
57 l12 30 18 -49 c11 -27 17 -53 14 -58z"/>
<path d="M4160 545 c0 -125 18 -143 22 -22 l3 82 50 -82 c27 -46 55 -83 62
-83 10 0 13 27 13 105 0 125 -18 143 -22 23 l-3 -83 -50 83 c-27 45 -55 82
-62 82 -10 0 -13 -27 -13 -105z"/>
<path d="M4380 544 c0 -80 3 -105 13 -102 6 3 14 17 15 33 2 16 12 39 22 52
20 26 23 24 60 -44 13 -24 30 -43 38 -43 9 0 3 20 -23 65 l-36 66 31 39 c47
60 13 49 -42 -12 l-47 -53 -1 53 c0 39 -4 52 -15 52 -12 0 -15 -18 -15 -106z"/>
<path d="M4590 545 c0 -63 4 -105 10 -105 6 0 10 42 10 105 0 63 -4 105 -10
105 -6 0 -10 -42 -10 -105z"/>
<path d="M4680 545 c0 -125 18 -143 22 -22 l3 82 50 -82 c28 -45 56 -82 63
-83 9 0 12 27 12 105 0 124 -18 143 -22 23 l-3 -82 -49 82 c-28 45 -56 82 -63
82 -10 0 -13 -25 -13 -105z"/>
<path d="M4911 624 c-15 -19 -21 -41 -21 -79 0 -71 26 -105 80 -105 21 0 42 5
45 10 5 8 11 7 21 -1 12 -10 14 -2 14 45 l0 56 -40 0 c-22 0 -40 -4 -40 -10 0
-5 14 -10 30 -10 22 0 30 -5 30 -18 0 -37 -54 -65 -87 -44 -32 20 -39 115 -11
150 16 19 63 14 83 -8 20 -22 35 -26 35 -10 0 24 -41 50 -79 50 -31 0 -44 -6
-60 -26z"/>
<path d="M590 276 c0 -147 3 -186 13 -180 22 14 157 116 161 123 4 6 -142 212
-168 238 -3 3 -6 -78 -6 -181z"/>
</g>
</svg>
